# xmcd CD database file
#
# Track frame offsets:
#	180
#	27105
#	59465
#
# Disc length: 1170 seconds
#
# Revision: 6
# Processed by: cddbd v1.5PL3 Copyright (c) Steve Scherf et al.
# Submitted via: CDex 1.51
#
DISCID=1e049003
DTITLE=DJ Groovy - Shake It
DYEAR=1995
DGENRE=New Age
TTITLE0=Shake It (Groovy mix)
TTITLE1=Shake It (Catchy mix)
TTITLE2=Shake It (Lively mix)
EXTD=YEAR: 1995
EXTT0=
EXTT1=
EXTT2=
PLAYORDER=
